<mxfile modified="2020-06-07T17:02:31.742Z" host="" agent="5.0 (Windows NT 10.0; Win64; x64) AppleWebKit/537.36 (KHTML, like Gecko) Code/1.45.1 Chrome/78.0.3904.130 Electron/7.2.4 Safari/537.36" etag="tQSjvDai-ryLgFId7Osq" version="13.1.3">
    <diagram id="f30675f3-52d7-edf3-5ec7-7263826b6385" name="Page-1">
        <mxGraphModel dx="1581" dy="808" grid="1" gridSize="10" guides="1" tooltips="1" connect="1" arrows="1" fold="1" page="1" pageScale="1" pageWidth="827" pageHeight="1169" math="1" shadow="0">
            <root>
                <mxCell id="0"/>
                <mxCell id="1" parent="0"/>
                <mxCell id="a3azfbPWqfaw9jcwOA8v-2" value="" style="rounded=0;orthogonalLoop=1;jettySize=auto;html=1;" parent="1" source="2bbeeeaa-1d2a-80d7-16b1-6fd92de3b522-2" target="a3azfbPWqfaw9jcwOA8v-1" edge="1">
                    <mxGeometry relative="1" as="geometry"/>
                </mxCell>
                <mxCell id="2bbeeeaa-1d2a-80d7-16b1-6fd92de3b522-2" value="toto&lt;br&gt;" style="ellipse;whiteSpace=wrap;html=1;" parent="1" vertex="1">
                    <mxGeometry x="360" y="60" width="120" height="80" as="geometry"/>
                </mxCell>
                <mxCell id="a3azfbPWqfaw9jcwOA8v-4" value="" style="edgeStyle=orthogonalEdgeStyle;rounded=0;orthogonalLoop=1;jettySize=auto;html=1;" parent="1" source="a3azfbPWqfaw9jcwOA8v-1" target="a3azfbPWqfaw9jcwOA8v-3" edge="1">
                    <mxGeometry relative="1" as="geometry"/>
                </mxCell>
                <mxCell id="a3azfbPWqfaw9jcwOA8v-1" value="toto&lt;br&gt;" style="ellipse;whiteSpace=wrap;html=1;" parent="1" vertex="1">
                    <mxGeometry x="140" y="250" width="120" height="80" as="geometry"/>
                </mxCell>
                <mxCell id="a3azfbPWqfaw9jcwOA8v-3" value="toto&lt;br&gt;" style="ellipse;whiteSpace=wrap;html=1;" parent="1" vertex="1">
                    <mxGeometry x="180" y="560" width="120" height="80" as="geometry"/>
                </mxCell>
                <mxCell id="a3azfbPWqfaw9jcwOA8v-12" value="" style="rounded=0;orthogonalLoop=1;jettySize=auto;html=1;edgeStyle=entityRelationEdgeStyle;endArrow=none;endFill=0;" parent="1" source="a3azfbPWqfaw9jcwOA8v-9" target="a3azfbPWqfaw9jcwOA8v-11" edge="1">
                    <mxGeometry relative="1" as="geometry"/>
                </mxCell>
                <mxCell id="a3azfbPWqfaw9jcwOA8v-9" value="toto&lt;br&gt;" style="whiteSpace=wrap;html=1;shape=partialRectangle;top=0;left=0;bottom=1;right=0;points=[[0,1],[1,1]];strokeColor=#000000;fillColor=none;align=center;verticalAlign=bottom;routingCenterY=0.5;snapToPoint=1;container=1;recursiveResize=0;autosize=1;treeFolding=1;" parent="1" vertex="1">
                    <mxGeometry x="580" y="200" width="50" height="20" as="geometry"/>
                </mxCell>
                <mxCell id="Y0_Ljgh2QQzvjs0ZDrhI-2" value="" style="edgeStyle=entityRelationEdgeStyle;rounded=0;orthogonalLoop=1;jettySize=auto;html=1;endArrow=none;endFill=0;" parent="1" source="a3azfbPWqfaw9jcwOA8v-11" target="Y0_Ljgh2QQzvjs0ZDrhI-1" edge="1">
                    <mxGeometry relative="1" as="geometry"/>
                </mxCell>
                <mxCell id="a3azfbPWqfaw9jcwOA8v-11" value="toto&lt;br&gt;" style="whiteSpace=wrap;html=1;shape=partialRectangle;top=0;left=0;bottom=1;right=0;points=[[0,1],[1,1]];strokeColor=#000000;fillColor=none;align=center;verticalAlign=bottom;routingCenterY=0.5;snapToPoint=1;container=1;recursiveResize=0;autosize=1;treeFolding=1;" parent="1" vertex="1">
                    <mxGeometry x="700" y="250" width="50" height="20" as="geometry"/>
                </mxCell>
                <mxCell id="Y0_Ljgh2QQzvjs0ZDrhI-1" value="toto&lt;br&gt;" style="whiteSpace=wrap;html=1;shape=partialRectangle;top=0;left=0;bottom=1;right=0;points=[[0,1],[1,1]];strokeColor=#000000;fillColor=none;align=center;verticalAlign=bottom;routingCenterY=0.5;snapToPoint=1;container=1;recursiveResize=0;autosize=1;treeFolding=1;" parent="1" vertex="1">
                    <mxGeometry x="760" y="400" width="50" height="20" as="geometry"/>
                </mxCell>
                <mxCell id="a3azfbPWqfaw9jcwOA8v-10" value="" style="edgeStyle=entityRelationEdgeStyle;startArrow=none;endArrow=none;segment=10;curved=1;" parent="1" source="2bbeeeaa-1d2a-80d7-16b1-6fd92de3b522-2" target="a3azfbPWqfaw9jcwOA8v-9" edge="1">
                    <mxGeometry relative="1" as="geometry">
                        <mxPoint x="120" y="680" as="sourcePoint"/>
                        <mxPoint x="350" y="160" as="targetPoint"/>
                    </mxGeometry>
                </mxCell>
            </root>
        </mxGraphModel>
    </diagram>
</mxfile>